<svg width="28" height="34" viewBox="0 0 28 34" fill="none" xmlns="http://www.w3.org/2000/svg">
<path d="M18 10.8653C18 10.7695 17.9617 10.6777 17.8935 10.61C17.8253 10.5423 17.7328 10.5043 17.6364 10.5043H15.8182C14.9026 10.459 14.0063 10.7753 13.3249 11.3841C12.6435 11.9928 12.2326 12.8446 12.1818 13.7532V15.7026H10.3636C10.2672 15.7026 10.1747 15.7406 10.1065 15.8083C10.0383 15.876 10 15.9678 10 16.0636V17.9407C10 18.0365 10.0383 18.1283 10.1065 18.196C10.1747 18.2637 10.2672 18.3017 10.3636 18.3017H12.1818V23.139C12.1818 23.2347 12.2201 23.3266 12.2883 23.3943C12.3565 23.462 12.449 23.5 12.5455 23.5H14.7273C14.8237 23.5 14.9162 23.462 14.9844 23.3943C15.0526 23.3266 15.0909 23.2347 15.0909 23.139V18.3017H16.9964C17.0772 18.3029 17.1562 18.2772 17.2207 18.2288C17.2853 18.1805 17.3317 18.1121 17.3527 18.0346L17.8764 16.1574C17.8908 16.1041 17.8928 16.0481 17.882 15.9939C17.8713 15.9397 17.8482 15.8887 17.8145 15.8448C17.7808 15.8008 17.7373 15.7652 17.6875 15.7405C17.6377 15.7159 17.5829 15.7029 17.5273 15.7026H15.0909V13.7532C15.109 13.5745 15.1935 13.4089 15.328 13.2887C15.4625 13.1686 15.6373 13.1025 15.8182 13.1034H17.6364C17.7328 13.1034 17.8253 13.0654 17.8935 12.9977C17.9617 12.93 18 12.8382 18 12.7424V10.8653Z" fill="white"/>
<rect x="1" y="1.5" width="26" height="31" rx="13" stroke="white" stroke-width="2"/>
</svg>
