<svg width="43" height="42" viewBox="0 0 43 42" fill="none" xmlns="http://www.w3.org/2000/svg">
<path d="M21.8701 10C18.885 10 18.5096 10.0138 17.3367 10.066C16.1639 10.121 15.365 10.3052 14.6651 10.5775C13.931 10.8536 13.266 11.2868 12.7167 11.8466C12.1572 12.3962 11.7241 13.0611 11.4476 13.795C11.1754 14.4935 10.9897 15.2937 10.9361 16.4625C10.8839 17.6381 10.8701 18.0121 10.8701 21.0014C10.8701 23.9879 10.8839 24.3619 10.9361 25.5347C10.9911 26.7062 11.1754 27.5051 11.4476 28.205C11.7295 28.9282 12.1049 29.5415 12.7167 30.1534C13.3272 30.7652 13.9405 31.142 14.6637 31.4225C15.365 31.6948 16.1625 31.8804 17.334 31.934C18.5082 31.9863 18.8822 32 21.8701 32C24.858 32 25.2306 31.9863 26.4049 31.934C27.575 31.879 28.3766 31.6948 29.0765 31.4225C29.8101 31.1462 30.4746 30.7131 31.0235 30.1534C31.6354 29.5415 32.0107 28.9282 32.2926 28.205C32.5635 27.5051 32.7491 26.7062 32.8041 25.5347C32.8564 24.3619 32.8701 23.9879 32.8701 21C32.8701 18.0121 32.8564 17.6381 32.8041 16.4639C32.7491 15.2938 32.5635 14.4935 32.2926 13.795C32.0161 13.0611 31.583 12.3962 31.0235 11.8466C30.4744 11.2866 29.8094 10.8534 29.0751 10.5775C28.3739 10.3052 27.5736 10.1196 26.4035 10.066C25.2292 10.0138 24.8566 10 21.8674 10H21.8715H21.8701ZM20.8842 11.9828H21.8715C24.8085 11.9828 25.1564 11.9924 26.3155 12.046C27.388 12.0941 27.971 12.2742 28.3587 12.4241C28.8716 12.6235 29.2387 12.8628 29.6237 13.2478C30.0087 13.6328 30.2466 13.9985 30.446 14.5128C30.5972 14.8991 30.776 15.4821 30.8241 16.5546C30.8777 17.7138 30.8887 18.0616 30.8887 20.9973C30.8887 23.9329 30.8777 24.2821 30.8241 25.4412C30.776 26.5137 30.5959 27.0954 30.446 27.4831C30.2696 27.9607 29.9882 28.3926 29.6224 28.7467C29.2374 29.1317 28.8716 29.3696 28.3574 29.569C27.9724 29.7203 27.3894 29.899 26.3155 29.9485C25.1564 30.0007 24.8085 30.0131 21.8715 30.0131C18.9345 30.0131 18.5852 30.0007 17.4261 29.9485C16.3536 29.899 15.772 29.7203 15.3842 29.569C14.9064 29.3929 14.4742 29.1119 14.1192 28.7467C13.7531 28.392 13.4712 27.9598 13.2942 27.4818C13.1444 27.0954 12.9642 26.5124 12.9161 25.4399C12.8639 24.2807 12.8529 23.9329 12.8529 20.9945C12.8529 18.0575 12.8639 17.711 12.9161 16.5519C12.9656 15.4794 13.1444 14.8964 13.2956 14.5086C13.495 13.9958 13.7342 13.6286 14.1192 13.2436C14.5042 12.8586 14.87 12.6208 15.3842 12.4214C15.772 12.2701 16.3536 12.0914 17.4261 12.0419C18.4409 11.9951 18.8341 11.9814 20.8842 11.98V11.9828V11.9828ZM27.7427 13.8087C27.5694 13.8087 27.3978 13.8429 27.2376 13.9092C27.0775 13.9756 26.9319 14.0728 26.8094 14.1954C26.6868 14.3179 26.5896 14.4635 26.5232 14.6236C26.4569 14.7838 26.4227 14.9554 26.4227 15.1287C26.4227 15.3021 26.4569 15.4737 26.5232 15.6339C26.5896 15.794 26.6868 15.9396 26.8094 16.0621C26.9319 16.1847 27.0775 16.2819 27.2376 16.3483C27.3978 16.4146 27.5694 16.4488 27.7427 16.4488C28.0928 16.4488 28.4286 16.3097 28.6761 16.0621C28.9237 15.8146 29.0627 15.4788 29.0627 15.1287C29.0627 14.7787 28.9237 14.4429 28.6761 14.1954C28.4286 13.9478 28.0928 13.8087 27.7427 13.8087V13.8087ZM21.8715 15.3515C21.1222 15.3398 20.3781 15.4773 19.6825 15.7559C18.9868 16.0346 18.3536 16.4488 17.8196 16.9746C17.2856 17.5003 16.8615 18.127 16.572 18.8182C16.2826 19.5094 16.1335 20.2513 16.1335 21.0007C16.1335 21.7501 16.2826 22.4919 16.572 23.1831C16.8615 23.8743 17.2856 24.5011 17.8196 25.0268C18.3536 25.5525 18.9868 25.9668 19.6825 26.2454C20.3781 26.5241 21.1222 26.6616 21.8715 26.6499C23.3545 26.6267 24.7689 26.0214 25.8095 24.9645C26.85 23.9076 27.4332 22.4839 27.4332 21.0007C27.4332 19.5175 26.85 18.0938 25.8095 17.0369C24.7689 15.98 23.3545 15.3746 21.8715 15.3515V15.3515ZM21.8715 17.3329C22.8441 17.3329 23.7768 17.7192 24.4645 18.407C25.1523 19.0947 25.5386 20.0274 25.5386 21C25.5386 21.9726 25.1523 22.9053 24.4645 23.593C23.7768 24.2808 22.8441 24.6671 21.8715 24.6671C20.8989 24.6671 19.9662 24.2808 19.2784 23.593C18.5907 22.9053 18.2044 21.9726 18.2044 21C18.2044 20.0274 18.5907 19.0947 19.2784 18.407C19.9662 17.7192 20.8989 17.3329 21.8715 17.3329V17.3329Z" fill="white"/>
<rect x="1.87012" y="1" width="40" height="40" rx="20" stroke="white" stroke-width="2"/>
</svg>
