<svg width="37" height="34" viewBox="0 0 37 34" fill="none" xmlns="http://www.w3.org/2000/svg">
<path d="M26.8702 11.7694C26.2498 12.0443 25.5833 12.23 24.8827 12.314C25.6056 11.8814 26.1465 11.2006 26.4043 10.3985C25.7251 10.802 24.9818 11.086 24.2066 11.2381C23.6853 10.6815 22.9948 10.3126 22.2424 10.1886C21.4899 10.0647 20.7176 10.1926 20.0453 10.5525C19.373 10.9125 18.8384 11.4843 18.5244 12.1793C18.2104 12.8742 18.1346 13.6534 18.3088 14.3958C16.9325 14.3267 15.5862 13.969 14.3572 13.3459C13.1281 12.7228 12.0438 11.8482 11.1747 10.779C10.8775 11.2916 10.7066 11.886 10.7066 12.519C10.7062 13.0889 10.8466 13.65 11.1151 14.1526C11.3837 14.6553 11.7721 15.0838 12.246 15.4003C11.6964 15.3828 11.159 15.2343 10.6783 14.9671V15.0117C10.6783 15.811 10.9548 16.5856 11.4608 17.2043C11.9669 17.8229 12.6714 18.2474 13.4549 18.4057C12.945 18.5437 12.4105 18.564 11.8916 18.4651C12.1127 19.1528 12.5432 19.7542 13.123 20.1851C13.7028 20.6159 14.4029 20.8547 15.1251 20.8679C13.899 21.8304 12.3849 22.3525 10.8262 22.3502C10.5501 22.3502 10.2742 22.3341 10 22.3019C11.5822 23.3191 13.4239 23.859 15.3049 23.8569C21.6723 23.8569 25.1531 18.5832 25.1531 14.0094C25.1531 13.8608 25.1494 13.7108 25.1427 13.5622C25.8198 13.0725 26.4042 12.4662 26.8687 11.7716L26.8702 11.7694Z" fill="white"/>
<rect x="1" y="1.14258" width="34.8702" height="31.7144" rx="15.855" stroke="white" stroke-width="2"/>
</svg>
